<?xml version="1.0" encoding="UTF-8"?>
<svg width="595px" height="595px" viewBox="0 0 595 595" version="1.1" xmlns="http://www.w3.org/2000/svg" xmlns:xlink="http://www.w3.org/1999/xlink">
    <!-- Generator: Sketch 47.1 (45422) - http://www.bohemiancoding.com/sketch -->
    <title>A4</title>
    <desc>Created with Sketch.</desc>
    <defs></defs>
    <g id="Page-1" stroke="none" stroke-width="1" fill="none" fill-rule="evenodd">
        <g id="A4">
            <g id="boston-red-sox" transform="translate(162.000000, 93.000000)">
                <path d="M228.660106,204.500006 C237.68228,214.784948 243.304173,227.43528 247.830013,241.499778 C251.191131,251.944102 255.407417,270.595204 262.147893,278.830704 L271,289.646732 L260.654838,298.888087 C256.969143,302.180485 253.164346,305.694216 250.180382,309.716505 C246.955533,314.063755 244.606774,319.192709 242.479586,324.201705 C238.089477,334.53846 234.196696,345.289158 230.180522,355.799376 C220.228609,381.841759 194.585934,399.966843 169.272664,406.279056 C142.669133,412.912849 116.147149,407.268577 94.6976901,390.96428 C77.8100167,409.105134 51.9565007,414.648032 29.0864127,401.986999 C2.13094347,387.063639 1.3884395,362.923142 0.732847126,335.419849 C15.8887266,348.541007 27.7301627,358.3157 47.4574845,343.520748 C53.7333599,338.814184 59.6621253,330.35003 59.5360498,321.921356 L59.5344404,321.809844 L59.5344404,254.460427 C59.5344404,238.374647 51.3347072,225.510866 40.176761,215.114413 L28.7859776,204.500006 L40.176761,193.885599 C51.3347072,183.489146 59.5344404,170.625365 59.5344404,154.539585 L59.5344404,87.1901673 L59.5360498,87.078656 C59.6621253,78.649419 53.7333599,70.1858275 47.4574845,65.4792641 C28.4141891,51.1973759 16.0292873,60.7890332 0,72.0415324 C1.45925636,45.2151914 2.98289167,21.4644208 29.0864127,7.01301287 C51.9565007,-5.6480199 77.8100167,-0.105122141 94.6976901,18.0351681 C116.147149,1.73143441 142.669133,-3.91283721 169.272664,2.72095599 C194.585934,9.03316876 220.228609,27.1582529 230.180522,53.2000729 C234.196696,63.7102902 238.089477,74.4609887 242.479586,84.7983072 C244.606774,89.8073026 246.955533,94.9362571 250.180382,99.2835064 C253.164346,103.305796 256.969143,106.819527 260.654838,110.111925 L271,119.353279 L262.147893,130.169308 C255.407417,138.404808 251.191131,157.05591 247.830013,167.500234 C243.304173,181.564732 237.68228,194.215064 228.660106,204.500006 Z M118.88862,326.974843 C126.573858,336.415566 137.505941,341.198723 149.5947,340.487416 C160.543951,339.842566 172.592472,334.322196 178.463833,324.187625 C184.178002,314.323384 181.876991,303.421751 176.753499,293.85938 L173.025957,286.901753 L176.753499,279.94469 C181.876991,270.382319 184.178002,259.480686 178.463833,249.616445 C172.592472,239.481311 160.543951,233.960941 149.5947,233.316654 C137.505941,232.604784 126.573858,237.388504 118.88862,246.828664 L118.88862,326.974843 Z M118.88862,160.766193 C126.573858,170.206916 137.505941,174.990636 149.5947,174.278767 C160.543951,173.634479 172.592472,168.114109 178.463833,157.978975 C184.178002,148.114735 181.876991,137.213102 176.753499,127.65073 L173.025957,120.693667 L176.753499,113.736041 C181.876991,104.173669 184.178002,93.2720361 178.463833,83.4077957 C172.592472,73.2732249 160.543951,67.7528547 149.5947,67.1080043 C137.505941,66.3966976 126.573858,71.1798546 118.88862,80.6205775 L118.88862,160.766193 L118.88862,160.766193 Z" id="Fill-1" fill="#000000"></path>
                <path d="M208.505839,204.500074 C239.681573,184.451343 236.008805,141.550982 253,120.839296 C235.975431,105.666887 234.801415,100.572963 218.625195,58.3423212 C203.765637,19.5499095 137.566994,-8.21355794 93.120202,38.4164848 C72.2893683,-0.767723953 21.3087852,11.184621 15,49.1460849 C45.254178,35.3762529 73.9295448,62.6041705 73.5608146,87.1870356 L73.5608146,154.490993 C73.5608146,173.817014 64.6601521,190.479943 49.5782797,204.500074 C64.6601521,218.519641 73.5608146,235.18257 73.5608146,254.509154 L73.5608146,321.812548 C73.9295448,346.395413 45.254178,373.623331 15,359.854062 C21.3087852,397.815526 72.2893683,409.767871 93.120202,370.583662 C137.566994,417.213705 203.765637,389.449674 218.625195,350.657826 C234.801415,308.427184 235.975431,303.33326 253,288.160851 C236.008805,267.449166 239.681573,224.548805 208.505839,204.500074 Z M105.98431,331.911327 C138.757696,381.179093 220.184089,344.244194 189.431991,286.982078 C220.184089,229.719961 138.757696,192.785062 105.98431,242.052828 L105.98431,331.911327 Z M189.431991,120.61211 C220.184089,63.3499941 138.757696,26.4150947 105.98431,75.6828613 L105.98431,165.54136 C138.757696,214.808562 220.184089,177.874227 189.431991,120.61211 Z" id="Fill-2" fill="#D8232A"></path>
            </g>
            <rect id="Rectangle" stroke="#979797" x="60.5" y="60.5" width="475" height="475"></rect>
        </g>
    </g>
</svg>